<svg width="30" height="30" viewBox="0 0 30 30" fill="none" xmlns="http://www.w3.org/2000/svg">
<circle cx="23.75" cy="6.25" r="3.75" fill="#EDA11B"/>
<path d="M22.6675 13.75C23.3938 20.4688 26.25 22.5 26.25 22.5H3.75C3.75 22.5 7.5 19.8337 7.5 10.5C7.5 8.37875 8.29 6.34375 9.69625 4.84375C11.1025 3.34375 13.0125 2.5 15 2.5C15.4225 2.5 15.8392 2.5375 16.25 2.6125M17.1625 26.25C16.9427 26.6288 16.6273 26.9433 16.2478 27.1619C15.8683 27.3805 15.438 27.4956 15 27.4956C14.562 27.4956 14.1317 27.3805 13.7522 27.1619C13.3727 26.9433 13.0573 26.6288 12.8375 26.25" stroke="#1F4E79" stroke-width="1.5" stroke-linecap="round" stroke-linejoin="round"/>
</svg>
