<svg width="35" height="35" viewBox="0 0 35 35" fill="none" xmlns="http://www.w3.org/2000/svg">
<path d="M10.2188 17.5C10.2188 17.2099 10.334 16.9317 10.5391 16.7266C10.7442 16.5215 11.0224 16.4063 11.3125 16.4063H16.4065V11.3123C16.4065 11.0222 16.5217 10.744 16.7268 10.5389C16.9319 10.3338 17.2101 10.2186 17.5002 10.2186C17.7903 10.2186 18.0685 10.3338 18.2736 10.5389C18.4787 10.744 18.594 11.0222 18.594 11.3123V16.4063H23.6879C23.978 16.4063 24.2562 16.5215 24.4613 16.7266C24.6664 16.9317 24.7817 17.2099 24.7817 17.5C24.7817 17.7901 24.6664 18.0683 24.4613 18.2734C24.2562 18.4785 23.978 18.5938 23.6879 18.5938H18.594V23.6877C18.594 23.9778 18.4787 24.256 18.2736 24.4611C18.0685 24.6663 17.7903 24.7815 17.5002 24.7815C17.2101 24.7815 16.9319 24.6663 16.7268 24.4611C16.5217 24.256 16.4065 23.9778 16.4065 23.6877V18.5938H11.3125C11.0224 18.5938 10.7442 18.4785 10.5391 18.2734C10.334 18.0683 10.2188 17.7901 10.2188 17.5Z" fill="#FFC000"/>
<path fill-rule="evenodd" clip-rule="evenodd" d="M10.6705 5.49649C15.2095 4.99328 19.7902 4.99328 24.3293 5.49649C26.9936 5.79399 29.1447 7.89253 29.4568 10.5715C29.9963 15.1754 29.9963 19.8261 29.4568 24.43C29.1432 27.109 26.9922 29.2061 24.3293 29.505C19.7902 30.0082 15.2095 30.0082 10.6705 29.505C8.00614 29.2061 5.85509 27.109 5.54301 24.43C5.00585 19.8261 5.00585 15.1754 5.54301 10.5715C5.85509 7.89253 8.00759 5.79399 10.6705 5.49649ZM24.0872 7.6694C19.7091 7.18411 15.2907 7.18411 10.9126 7.6694C10.1021 7.75932 9.34562 8.11984 8.76531 8.69274C8.18501 9.26563 7.81479 10.0174 7.71447 10.8267C7.19578 15.2614 7.19578 19.7415 7.71447 24.1763C7.8151 24.9853 8.18545 25.7367 8.76572 26.3093C9.346 26.8819 10.1023 27.2423 10.9126 27.3321C15.2541 27.8163 19.7457 27.8163 24.0872 27.3321C24.8972 27.242 25.6532 26.8815 26.2332 26.3089C26.8131 25.7364 27.1833 24.9851 27.2838 24.1763C27.8025 19.7415 27.8025 15.2614 27.2838 10.8267C27.183 10.0182 26.8127 9.26722 26.2327 8.69494C25.6528 8.12265 24.897 7.76241 24.0872 7.67232" fill="#FFC000"/>
</svg>
