<svg width="108" height="111" viewBox="0 0 108 111" fill="none" xmlns="http://www.w3.org/2000/svg">
<rect width="108" height="111" rx="15" fill="#FFC000"/>
<path d="M53.9999 29.0833C57.3322 29.0823 60.577 30.1495 63.2582 32.1282C65.9394 34.107 67.9156 36.893 68.8969 40.0776C69.8783 43.2621 69.8129 46.6773 68.7105 49.8219C67.6082 52.9666 65.5268 55.6751 62.7719 57.5498C67.5536 59.3036 71.7009 62.4484 74.6801 66.5794C77.6593 70.7104 79.334 75.6385 79.4885 80.7293C79.503 81.0119 79.4609 81.2945 79.3646 81.5606C79.2684 81.8267 79.12 82.0708 78.9281 82.2788C78.7362 82.4867 78.5048 82.6543 78.2473 82.7716C77.9898 82.8889 77.7115 82.9536 77.4287 82.9619C77.1458 82.9702 76.8642 82.9219 76.6003 82.8199C76.3364 82.7179 76.0955 82.5643 75.8917 82.3679C75.688 82.1716 75.5255 81.9365 75.4138 81.6765C75.3022 81.4166 75.2435 81.1369 75.2414 80.854C75.0727 75.3331 72.7609 70.0949 68.796 66.2493C64.8312 62.4038 59.5247 60.2531 54.0013 60.2531C48.4778 60.2531 43.1714 62.4038 39.2066 66.2493C35.2417 70.0949 32.9299 75.3331 32.7612 80.854C32.7443 81.4176 32.5042 81.9513 32.0937 82.3379C31.6833 82.7245 31.136 82.9321 30.5725 82.9152C30.0089 82.8983 29.4751 82.6582 29.0885 82.2477C28.702 81.8373 28.4943 81.2901 28.5112 80.7265C28.6663 75.6361 30.3412 70.7087 33.3204 66.5782C36.2996 62.4478 40.4466 59.3035 45.2279 57.5498C42.473 55.6751 40.3916 52.9666 39.2892 49.8219C38.1868 46.6773 38.1215 43.2621 39.1028 40.0776C40.0841 36.893 42.0604 34.107 44.7416 32.1282C47.4227 30.1495 50.6676 29.0823 53.9999 29.0833ZM42.6665 44.6666C42.6665 47.6724 43.8606 50.5551 45.986 52.6805C48.1114 54.8059 50.9941 56 53.9999 56C57.0057 56 59.8883 54.8059 62.0138 52.6805C64.1392 50.5551 65.3332 47.6724 65.3332 44.6666C65.3332 41.6609 64.1392 38.7782 62.0138 36.6528C59.8883 34.5274 57.0057 33.3333 53.9999 33.3333C50.9941 33.3333 48.1114 34.5274 45.986 36.6528C43.8606 38.7782 42.6665 41.6609 42.6665 44.6666Z" fill="#D9D9D9"/>
</svg>
