<svg width="63" height="63" viewBox="0 0 63 63" fill="none" xmlns="http://www.w3.org/2000/svg">
<path d="M31.5002 6.5625C34.5874 6.56156 37.5937 7.55026 40.0777 9.38351C42.5617 11.2168 44.3927 13.798 45.3018 16.7483C46.211 19.6987 46.1505 22.8628 45.1292 25.7762C44.1078 28.6897 42.1795 31.199 39.6272 32.9359C44.0573 34.5607 47.8997 37.4743 50.6598 41.3015C53.4199 45.1288 54.9715 49.6945 55.1147 54.411C55.128 54.6728 55.089 54.9346 54.9998 55.1811C54.9107 55.4277 54.7732 55.6539 54.5954 55.8465C54.4177 56.0392 54.2032 56.1944 53.9647 56.3031C53.7261 56.4118 53.4683 56.4717 53.2062 56.4794C52.9442 56.4871 52.6833 56.4424 52.4388 56.3479C52.1942 56.2534 51.9711 56.111 51.7823 55.9291C51.5936 55.7472 51.443 55.5294 51.3396 55.2886C51.2361 55.0477 51.1818 54.7886 51.1798 54.5265C51.0235 49.4116 48.8817 44.5585 45.2084 40.9957C41.535 37.4329 36.6188 35.4404 31.5015 35.4404C26.3841 35.4404 21.4679 37.4329 17.7946 40.9957C14.1212 44.5585 11.9795 49.4116 11.8232 54.5265C11.8075 55.0486 11.585 55.5432 11.2048 55.9013C10.8245 56.2595 10.3175 56.4519 9.79534 56.4362C9.27319 56.4205 8.77866 56.1981 8.42052 55.8178C8.06239 55.4375 7.86999 54.9305 7.88565 54.4084C8.02937 49.6923 9.58113 45.1272 12.3412 41.3005C15.1013 37.4737 18.9435 34.5606 23.3732 32.9359C20.8208 31.199 18.8925 28.6897 17.8712 25.7762C16.8498 22.8628 16.7893 19.6987 17.6985 16.7483C18.6076 13.798 20.4386 11.2168 22.9226 9.38351C25.4066 7.55026 28.4129 6.56156 31.5002 6.5625ZM21.0002 21C21.0002 23.7848 22.1064 26.4555 24.0755 28.4246C26.0447 30.3938 28.7154 31.5 31.5002 31.5C34.2849 31.5 36.9556 30.3938 38.9248 28.4246C40.8939 26.4555 42.0002 23.7848 42.0002 21C42.0002 18.2152 40.8939 15.5445 38.9248 13.5754C36.9556 11.6062 34.2849 10.5 31.5002 10.5C28.7154 10.5 26.0447 11.6062 24.0755 13.5754C22.1064 15.5445 21.0002 18.2152 21.0002 21Z" fill="#FFC000"/>
</svg>
