<svg width="30" height="30" viewBox="0 0 30 30" fill="none" xmlns="http://www.w3.org/2000/svg">
<g clip-path="url(#clip0_182_526)">
<path fill-rule="evenodd" clip-rule="evenodd" d="M15.0793 17.1437V17.6237C15.0793 17.8502 14.8957 18.0339 14.6692 18.0339C14.4426 18.0339 14.259 17.8502 14.259 17.6237V17.1467H13.7514C13.5249 17.1467 13.3412 16.9631 13.3412 16.7366C13.3412 16.5101 13.5249 16.3264 13.7514 16.3264H14.9898C15.4195 16.3264 15.6511 15.8007 15.3372 15.4867C15.2478 15.3973 15.1248 15.3418 14.9898 15.3418H14.4245C13.2672 15.3418 12.6672 13.9318 13.4972 13.1018C13.698 12.901 13.9635 12.7645 14.2591 12.727V12.2396C14.2591 12.0131 14.4427 11.8295 14.6692 11.8295C14.8957 11.8295 15.0794 12.0131 15.0794 12.2396V12.7166H15.6629C15.8894 12.7166 16.0731 12.9002 16.0731 13.1267C16.0731 13.3533 15.8894 13.5369 15.6629 13.5369H14.4245C13.9949 13.5369 13.7632 14.0626 14.0772 14.3766C14.1666 14.466 14.2896 14.5216 14.4245 14.5216H14.9898C16.1471 14.5216 16.7471 15.9316 15.9172 16.7615C15.6992 16.9794 15.4052 17.1215 15.0793 17.1437ZM13.3457 29.0259L13.7911 29.0657V21.3167L13.4546 21.2549C10.4586 20.7045 8.25285 18.0846 8.25285 15C8.25285 11.9154 10.4586 9.29554 13.4546 8.74511L13.7911 8.68329V0.934326L13.3457 0.974053C6.11641 1.61917 0.526855 7.69599 0.526855 15C0.526855 22.3041 6.11646 28.3809 13.3457 29.0259ZM4.81457 23.9446C6.89342 26.2198 9.75402 27.768 12.9708 28.1646V21.9889C9.75344 21.2361 7.43254 18.3516 7.43254 15C7.43254 11.6484 9.75344 8.76386 12.9708 8.0111V1.83544C6.36977 2.64919 1.34711 8.27513 1.34711 15C1.34711 18.4482 2.66084 21.5875 4.81457 23.9446ZM24.5349 24.9932C22.2144 27.297 19.1777 28.7316 15.8777 29.0259L15.4323 29.0657V21.3167L15.7687 21.2549C17.028 21.0235 18.1729 20.4194 19.0766 19.5285L19.3662 19.2429L24.8267 24.7034L24.5349 24.9932ZM20.2077 27.0291C21.4833 26.4347 22.6476 25.6448 23.6617 24.6984L19.3524 20.389C18.4703 21.1652 17.4057 21.7189 16.2525 21.9889V28.1646C17.6473 27.9925 18.9774 27.6023 20.2077 27.0291ZM26.5655 6.43224L26.2802 6.06063L20.7597 11.581L20.9146 11.8524C21.6848 13.2021 21.933 14.8026 21.6071 16.3326C21.4757 16.9492 21.3215 17.3147 21.0779 17.8579L26.6669 23.447L26.9467 23.0458C30.4511 18.0211 30.2966 11.2915 26.5655 6.43224ZM27.9529 10.7376C27.5338 9.50214 26.9376 8.34831 26.1944 7.30634L21.7757 11.725C22.723 13.5683 22.8248 15.7466 22.0513 17.6715L26.5502 22.1703C28.7262 18.7897 29.25 14.5619 27.9529 10.7376ZM15.8777 0.974111C18.9541 1.24862 21.8107 2.51765 24.0694 4.56603L24.3886 4.85554L18.9289 10.3153C18.3644 9.85241 17.9891 9.55534 17.2881 9.22968C16.6061 8.91286 16.1467 8.8146 15.4322 8.68335V0.934326L15.8777 0.974111ZM19.9355 2.84671C21.1245 3.36813 22.2219 4.05843 23.1972 4.887L18.8655 9.21872C18.086 8.6438 17.2026 8.23294 16.2526 8.01099V1.83532C17.5459 1.99493 18.7829 2.34122 19.9355 2.84671ZM14.7071 9.56442C11.743 9.56442 9.33988 11.9675 9.33988 14.9317C9.33988 17.8958 11.743 20.2989 14.7071 20.2989C17.6713 20.2989 20.0744 17.8958 20.0744 14.9317C20.0744 11.9675 17.6712 9.56442 14.7071 9.56442ZM17.9223 11.7165C16.1467 9.94083 13.2675 9.94083 11.4919 11.7165C9.71629 13.4921 9.71629 16.3713 11.4919 18.1469C13.2675 19.9225 16.1467 19.9225 17.9223 18.1469C19.698 16.3713 19.698 13.4921 17.9223 11.7165Z" fill="white"/>
</g>
<defs>
<clipPath id="clip0_182_526">
<rect width="30" height="30" fill="white"/>
</clipPath>
</defs>
</svg>
