<svg width="30" height="30" viewBox="0 0 30 30" fill="none" xmlns="http://www.w3.org/2000/svg">
<path d="M17.2743 15.1335C20.7298 12.7771 19.1759 7.02 15.0067 7C14.1042 6.99934 13.2258 7.30775 12.5028 7.87908C11.7799 8.45042 11.2513 9.25397 10.996 10.1695C10.7408 11.0851 10.7727 12.0635 11.087 12.9582C11.4012 13.853 11.9809 14.6162 12.7394 15.1335C11.6684 15.5039 10.6934 16.1323 9.89112 16.969C9.08882 17.8058 8.48113 18.8282 8.11592 19.9556C8.00445 20.2977 7.97275 20.6632 8.02352 21.021C8.0743 21.3788 8.20604 21.7184 8.40755 22.0108C8.61395 22.3161 8.88612 22.5651 9.20155 22.7371C9.51697 22.9091 9.86659 22.9992 10.2215 23H19.792C20.1392 22.9992 20.4813 22.9121 20.7907 22.7455C21.1002 22.579 21.3682 22.3378 21.5732 22.0414C21.7782 21.745 21.9143 21.4018 21.9707 21.0394C22.027 20.6771 22.0019 20.3058 21.8975 19.9556C21.5324 18.8281 20.9248 17.8057 20.1225 16.969C19.3202 16.1322 18.3452 15.5038 17.2743 15.1335ZM11.8605 11.4228C11.9928 7.02438 18.0219 7.02595 18.1534 11.4228C18.0212 15.8206 11.9922 15.8201 11.8605 11.4228ZM20.7644 21.3738C20.6538 21.5377 20.508 21.6713 20.3389 21.7637C20.1698 21.8561 19.9823 21.9046 19.792 21.9052H10.2215C10.0385 21.9058 9.85799 21.861 9.69432 21.7746C9.53065 21.6881 9.38839 21.5623 9.27894 21.4073C9.16949 21.2522 9.09589 21.0722 9.06402 20.8817C9.03216 20.6911 9.04292 20.4953 9.09544 20.31C11.0101 14.3968 19.0053 14.3977 20.918 20.3104C20.9752 20.4876 20.9911 20.6769 20.9644 20.862C20.9376 21.0471 20.869 21.2227 20.7644 21.3738Z" fill="white"/>
<path d="M29.9129 18.6033C29.6337 17.7948 29.177 17.0577 28.5757 16.4453C27.9744 15.833 27.2435 15.3605 26.4357 15.0622C27.0064 14.6378 27.4279 14.046 27.6403 13.3708C27.8527 12.6956 27.8454 11.9713 27.6193 11.3005C27.3931 10.6297 26.9598 10.0465 26.3806 9.63356C25.8013 9.22065 25.1057 8.99898 24.3923 9C23.6789 9.00102 22.9839 9.22467 22.4059 9.63924C21.8279 10.0538 21.3962 10.6382 21.1721 11.3097C20.9479 11.9811 20.9426 12.7055 21.157 13.3801C21.3714 14.0547 21.7946 14.6452 22.3665 15.068C21.8956 15.2699 20.9311 15.5135 21.2788 16.1977C21.3139 16.2569 21.3604 16.3087 21.4157 16.3501C21.471 16.3915 21.534 16.4217 21.6011 16.4389C21.6681 16.4562 21.738 16.4601 21.8066 16.4506C21.8752 16.4411 21.9413 16.4182 22.001 16.3833C22.6122 16.0359 23.2932 15.8263 23.9954 15.7694C24.6976 15.7125 25.4039 15.8096 26.0639 16.0539C26.724 16.2982 27.3217 16.6837 27.8144 17.183C28.3072 17.6822 28.683 18.283 28.915 18.9425C28.9502 19.0604 28.9571 19.1849 28.9351 19.3059C28.913 19.427 28.8627 19.5412 28.7882 19.6396C28.7137 19.7379 28.6169 19.8175 28.5058 19.8721C28.3946 19.9268 28.2721 19.9548 28.148 19.9541L23.9595 19.9541C23.8196 19.9541 23.6854 20.0092 23.5865 20.1073C23.4876 20.2053 23.432 20.3384 23.432 20.4771C23.432 20.6157 23.4876 20.7488 23.5865 20.8468C23.6854 20.9449 23.8196 21 23.9595 21H28.148C28.4395 20.9994 28.7268 20.9308 28.9866 20.7996C29.2463 20.6685 29.4713 20.4785 29.6431 20.2451C29.815 20.0117 29.929 19.7414 29.9759 19.4562C30.0227 19.1709 30.0011 18.8787 29.9129 18.6033ZM22.052 12.3708C22.0571 11.7575 22.3064 11.171 22.7457 10.7392C23.1849 10.3073 23.7785 10.0649 24.3971 10.0649C25.0158 10.0649 25.6094 10.3073 26.0486 10.7392C26.4878 11.1711 26.7372 11.7575 26.7422 12.3708C26.7371 12.9841 26.4878 13.5706 26.0486 14.0025C25.6093 14.4344 25.0157 14.6767 24.3971 14.6767C23.7784 14.6767 23.1849 14.4344 22.7456 14.0025C22.3064 13.5706 22.0571 12.9841 22.052 12.3708Z" fill="white"/>
<path d="M6.03736 19.9541H1.84395C1.71962 19.9549 1.59682 19.9269 1.48541 19.8723C1.374 19.8176 1.27707 19.7379 1.2024 19.6394C1.12774 19.541 1.07741 19.4266 1.05547 19.3054C1.03352 19.1842 1.04056 19.0596 1.07603 18.9416C1.30849 18.2822 1.68481 17.6816 2.17821 17.1825C2.67161 16.6834 3.27 16.298 3.93082 16.0538C4.59164 15.8096 5.29867 15.7126 6.00165 15.7696C6.70463 15.8266 7.3863 16.0362 7.9982 16.3836C8.11881 16.4506 8.26112 16.4681 8.3946 16.4323C8.52807 16.3966 8.64207 16.3104 8.71213 16.1924C8.78218 16.0743 8.80271 15.9338 8.76931 15.8009C8.73591 15.668 8.65124 15.5534 8.53347 15.4817C8.2456 15.3182 7.94397 15.1798 7.63197 15.0679C8.20455 14.6451 8.6282 14.0546 8.84282 13.38C9.05744 12.7054 9.05215 11.981 8.8277 11.3096C8.60324 10.6381 8.17102 10.0537 7.59232 9.63916C7.01362 9.22461 6.31781 9.00099 5.60356 9C4.88931 8.99902 4.19287 9.22072 3.613 9.63367C3.03314 10.0466 2.59927 10.6299 2.37293 11.3007C2.14659 11.9715 2.13926 12.6958 2.35198 13.371C2.56471 14.0462 2.98668 14.6379 3.55808 15.0623C1.85068 15.5994 -0.948631 18.327 0.319901 20.2222C0.493278 20.4624 0.721954 20.6582 0.986988 20.7935C1.25202 20.9288 1.54579 20.9996 1.84395 21H6.03736C6.17579 20.9975 6.30771 20.9414 6.40472 20.8436C6.50174 20.7458 6.5561 20.6141 6.5561 20.477C6.5561 20.3399 6.50174 20.2083 6.40472 20.1105C6.30771 20.0127 6.17579 19.9565 6.03736 19.9541ZM3.25086 12.3708C3.25597 11.7575 3.50558 11.1711 3.94534 10.7392C4.3851 10.3073 4.97938 10.065 5.59875 10.065C6.21812 10.065 6.81239 10.3073 7.25215 10.7392C7.6919 11.1711 7.9415 11.7576 7.9466 12.3709C7.94149 12.9841 7.69188 13.5706 7.25212 14.0025C6.81236 14.4344 6.21808 14.6767 5.59871 14.6767C4.97934 14.6767 4.38507 14.4344 3.94531 14.0025C3.50556 13.5706 3.25596 12.9841 3.25086 12.3708Z" fill="white"/>
</svg>
