<svg width="30" height="30" viewBox="0 0 30 30" fill="none" xmlns="http://www.w3.org/2000/svg">
<g clip-path="url(#clip0_182_145)">
<path d="M15 0.46875C6.98672 0.46875 0.46875 6.98672 0.46875 15C0.46875 19.6875 2.74922 24.1125 6.56953 26.8383C9.04219 28.6008 11.9555 29.5312 15 29.5312C18.0445 29.5312 20.9578 28.6008 23.4305 26.8383C27.2508 24.1125 29.5312 19.6875 29.5312 15C29.5312 6.98672 23.0133 0.46875 15 0.46875ZM22.8867 26.0742C20.5734 27.7219 17.8477 28.5938 15 28.5938C12.1523 28.5938 9.42656 27.7219 7.11328 26.0742C3.53906 23.5242 1.40625 19.3852 1.40625 15C1.40625 7.50469 7.50469 1.40625 15 1.40625C22.4953 1.40625 28.5938 7.50469 28.5938 15C28.5938 19.3852 26.4609 23.5242 22.8867 26.0742Z" fill="white"/>
<path d="M17.7213 14.6273C19.1393 13.725 20.0814 12.1406 20.0814 10.3406C20.0814 7.53984 17.8033 5.26172 15.0025 5.26172C12.2018 5.26172 9.92363 7.53984 9.92363 10.3406C9.92363 12.143 10.8682 13.725 12.2861 14.6273C9.45019 15.2414 7.31738 17.7703 7.31738 20.7867V22.3687C7.31738 22.4953 7.36895 22.6148 7.45801 22.7039C9.48535 24.6914 12.1643 25.7836 15.0025 25.7836C17.8408 25.7836 20.5174 24.6891 22.5471 22.7039C22.6361 22.6148 22.6877 22.4953 22.6877 22.3687V20.7867C22.6854 17.7703 20.5549 15.2437 17.7213 14.6273ZM10.8588 10.3383C10.8588 8.05547 12.7174 6.19687 15.0002 6.19687C17.283 6.19687 19.1416 8.05547 19.1416 10.3383C19.1416 12.6211 17.283 14.4797 15.0002 14.4797C12.7174 14.4797 10.8588 12.6234 10.8588 10.3383ZM21.7479 22.1672C19.9127 23.8945 17.5244 24.8438 15.0002 24.8438C12.476 24.8438 10.0877 23.8945 8.25254 22.1672V20.7844C8.25254 17.8242 10.6596 15.4172 13.6197 15.4172H16.3807C19.3408 15.4172 21.7479 17.8242 21.7479 20.7844V22.1672Z" fill="white"/>
</g>
<defs>
<clipPath id="clip0_182_145">
<rect width="30" height="30" fill="white"/>
</clipPath>
</defs>
</svg>
