<svg width="27" height="26" viewBox="0 0 27 26" fill="none" xmlns="http://www.w3.org/2000/svg">
<path d="M13.5 17.3333C15.364 17.3333 16.875 15.8782 16.875 14.0833C16.875 12.2884 15.364 10.8333 13.5 10.8333C11.636 10.8333 10.125 12.2884 10.125 14.0833C10.125 15.8782 11.636 17.3333 13.5 17.3333Z" stroke="black" stroke-width="1.5"/>
<path d="M2.25 14.4777C2.25 11.1572 2.25 9.49757 3.09263 8.30591C3.45889 7.78807 3.92757 7.34484 4.47187 7.00157C5.28187 6.48916 6.29663 6.30607 7.85025 6.24107C8.59163 6.24107 9.2295 5.71024 9.37463 5.02232C9.48553 4.51843 9.7737 4.06686 10.1904 3.74394C10.6071 3.42101 11.1269 3.24653 11.6618 3.24999H15.3382C16.4497 3.24999 17.4071 3.99207 17.6254 5.02232C17.7705 5.71024 18.4084 6.24107 19.1497 6.24107C20.7022 6.30607 21.717 6.49024 22.5281 7.00157C23.0737 7.34607 23.5429 7.78916 23.9074 8.30591C24.75 9.49757 24.75 11.1572 24.75 14.4777C24.75 17.7981 24.75 19.4567 23.9074 20.6494C23.5411 21.1672 23.0724 21.6105 22.5281 21.9537C21.267 22.75 19.5109 22.75 15.9998 22.75H11.0002C7.48912 22.75 5.733 22.75 4.47187 21.9537C3.92787 21.61 3.45957 21.1664 3.09375 20.6483C2.84933 20.2977 2.66933 19.9093 2.56162 19.5M21.375 10.8333H20.25" stroke="black" stroke-width="1.5" stroke-linecap="round"/>
</svg>
