<svg width="32" height="32" viewBox="0 0 32 32" fill="none" xmlns="http://www.w3.org/2000/svg">
<path d="M24 12L22.88 23.1973C22.7107 24.8947 22.6267 25.7427 22.24 26.384C21.9009 26.9485 21.4021 27.4 20.8067 27.6813C20.1307 28 19.28 28 17.5733 28H14.4267C12.7213 28 11.8693 28 11.1933 27.68C10.5974 27.3989 10.0982 26.9474 9.75867 26.3827C9.37467 25.7427 9.28933 24.8947 9.11867 23.1973L8 12M18 20.6667V14M14 20.6667V14M6 8.66667H12.1533M12.1533 8.66667L12.668 5.104C12.8173 4.456 13.356 4 13.9747 4H18.0253C18.644 4 19.1813 4.456 19.332 5.104L19.8467 8.66667M12.1533 8.66667H19.8467M19.8467 8.66667H26" stroke="white" stroke-width="1.5" stroke-linecap="round" stroke-linejoin="round"/>
</svg>
