<svg width="25" height="25" viewBox="0 0 25 25" fill="none" xmlns="http://www.w3.org/2000/svg">
<path d="M0.833139 12.5L0.0598061 12.19C-0.0199354 12.389 -0.0199354 12.6111 0.0598061 12.81L0.833139 12.5ZM24.1665 12.5L24.9398 12.81C25.0195 12.6111 25.0195 12.389 24.9398 12.19L24.1665 12.5ZM12.4998 20C8.64314 20 5.93481 18.08 4.16147 16.11C3.19302 15.0257 2.38023 13.8118 1.74647 12.5034L1.61314 12.2034L1.60647 12.1917L0.833139 12.5L0.0598061 12.81V12.8134L0.0648061 12.82L0.108139 12.925L0.238139 13.2134C0.94126 14.6686 1.84445 16.0183 2.92147 17.2234C4.89981 19.4217 8.02314 21.6667 12.4998 21.6667V20ZM0.833139 12.5L1.60647 12.81L1.61314 12.7967C1.65429 12.6953 1.69876 12.5952 1.74647 12.4967C2.38023 11.1883 3.19302 9.97438 4.16147 8.89004C5.93314 6.92004 8.64314 5.00004 12.4998 5.00004V3.33337C8.02314 3.33337 4.89814 5.58004 2.92147 7.77671C1.84445 8.98174 0.94126 10.3315 0.238139 11.7867C0.17755 11.9166 0.119759 12.0477 0.0648061 12.18L0.0614727 12.1867V12.1884H0.0581394L0.833139 12.5ZM12.4998 5.00004C16.3565 5.00004 19.0648 6.92004 20.8381 8.89004C21.8066 9.97438 22.6194 11.1883 23.2531 12.4967L23.3865 12.7967L23.3931 12.8084L24.1665 12.5L24.9398 12.19V12.1867L24.9348 12.18L24.8915 12.075L24.7615 11.7867C24.0584 10.3315 23.1552 8.98174 22.0781 7.77671C20.0998 5.58004 16.9765 3.33337 12.4998 3.33337V5.00004ZM24.1665 12.5L23.3931 12.19L23.3881 12.2034L23.3631 12.2617L23.2531 12.5034C22.6194 13.8118 21.8066 15.0257 20.8381 16.11C19.0665 18.08 16.3565 20 12.4998 20V21.6667C16.9765 21.6667 20.1015 19.42 22.0781 17.225C23.1553 16.0195 24.0585 14.6692 24.7615 13.2134C24.8221 13.0835 24.8799 12.9524 24.9348 12.82L24.9381 12.8134V12.8117L24.9398 12.81L24.1665 12.5ZM12.4998 15C11.8368 15 11.2009 14.7366 10.732 14.2678C10.2632 13.799 9.99981 13.1631 9.99981 12.5H8.33314C8.33314 13.6051 8.77213 14.6649 9.55353 15.4463C10.3349 16.2277 11.3947 16.6667 12.4998 16.6667V15ZM14.9998 12.5C14.9998 13.1631 14.7364 13.799 14.2676 14.2678C13.7987 14.7366 13.1628 15 12.4998 15V16.6667C13.6049 16.6667 14.6647 16.2277 15.4461 15.4463C16.2275 14.6649 16.6665 13.6051 16.6665 12.5H14.9998ZM12.4998 10C13.1628 10 13.7987 10.2634 14.2676 10.7323C14.7364 11.2011 14.9998 11.837 14.9998 12.5H16.6665C16.6665 11.395 16.2275 10.3352 15.4461 9.55376C14.6647 8.77236 13.6049 8.33337 12.4998 8.33337V10ZM12.4998 8.33337C11.3947 8.33337 10.3349 8.77236 9.55353 9.55376C8.77213 10.3352 8.33314 11.395 8.33314 12.5H9.99981C9.99981 11.837 10.2632 11.2011 10.732 10.7323C11.2009 10.2634 11.8368 10 12.4998 10V8.33337Z" fill="white"/>
</svg>
