<svg width="30" height="30" viewBox="0 0 30 30" fill="none" xmlns="http://www.w3.org/2000/svg">
<g clip-path="url(#clip0_1_475)">
<path d="M13.6082 4.20833C15.4133 4.20669 17.1784 4.74046 18.6801 5.74212C20.1818 6.74379 21.3527 8.16834 22.0446 9.83557C22.7365 11.5028 22.9184 13.3378 22.5673 15.1084C22.2161 16.879 21.3477 18.5057 20.0719 19.7827C18.796 21.0597 17.1701 21.9296 15.3998 22.2824C13.6295 22.6352 11.7944 22.4549 10.1265 21.7645C8.45865 21.0741 7.03303 19.9046 6.02999 18.4038C5.02696 16.903 4.49157 15.1384 4.49157 13.3333C4.50252 10.918 5.46627 8.60468 7.17337 6.89601C8.88048 5.18735 11.193 4.22148 13.6082 4.20833ZM13.6082 2.5C11.4656 2.5 9.3711 3.13536 7.58956 4.32575C5.80803 5.51613 4.4195 7.20806 3.59955 9.1876C2.7796 11.1671 2.56506 13.3454 2.98307 15.4468C3.40107 17.5483 4.43285 19.4786 5.94792 20.9937C7.46299 22.5087 9.3933 23.5405 11.4948 23.9585C13.5962 24.3765 15.7744 24.162 17.754 23.342C19.7335 22.5221 21.4254 21.1335 22.6158 19.352C23.8062 17.5705 24.4416 15.476 24.4416 13.3333C24.4416 10.4602 23.3002 7.70465 21.2686 5.67301C19.2369 3.64137 16.4814 2.5 13.6082 2.5Z" fill="#1F4E79"/>
<path d="M29.1668 27.7417L23.0251 21.5583L21.8418 22.7333L27.9835 28.9167C28.0606 28.9944 28.1523 29.0561 28.2533 29.0984C28.3543 29.1406 28.4627 29.1626 28.5722 29.163C28.6817 29.1634 28.7902 29.1422 28.8915 29.1006C28.9928 29.0591 29.0849 28.998 29.1626 28.9208C29.2403 28.8437 29.3021 28.752 29.3443 28.651C29.3866 28.55 29.4085 28.4416 29.4089 28.3321C29.4093 28.2226 29.3881 28.1141 29.3466 28.0128C29.305 27.9115 29.2439 27.8194 29.1668 27.7417Z" fill="#1F4E79"/>
</g>
<defs>
<clipPath id="clip0_1_475">
<rect width="30" height="30" fill="white"/>
</clipPath>
</defs>
</svg>
