<svg width="30" height="30" viewBox="0 0 30 30" fill="none" xmlns="http://www.w3.org/2000/svg">
<path d="M8.75879 15C8.75879 14.7513 8.85756 14.5129 9.03338 14.3371C9.20919 14.1613 9.44765 14.0625 9.69629 14.0625H14.0625V9.69623C14.0625 9.44759 14.1613 9.20913 14.3371 9.03332C14.5129 8.8575 14.7514 8.75873 15 8.75873C15.2487 8.75873 15.4871 8.8575 15.663 9.03332C15.8388 9.20913 15.9375 9.44759 15.9375 9.69623V14.0625H20.3038C20.5524 14.0625 20.7909 14.1613 20.9667 14.3371C21.1425 14.5129 21.2413 14.7513 21.2413 15C21.2413 15.2486 21.1425 15.4871 20.9667 15.6629C20.7909 15.8387 20.5524 15.9375 20.3038 15.9375H15.9375V20.3037C15.9375 20.5524 15.8388 20.7908 15.663 20.9666C15.4871 21.1425 15.2487 21.2412 15 21.2412C14.7514 21.2412 14.5129 21.1425 14.3371 20.9666C14.1613 20.7908 14.0625 20.5524 14.0625 20.3037V15.9375H9.69629C9.44765 15.9375 9.20919 15.8387 9.03338 15.6629C8.85756 15.4871 8.75879 15.2486 8.75879 15Z" fill="white"/>
<path fill-rule="evenodd" clip-rule="evenodd" d="M9.14608 4.71125C13.0367 4.27993 16.963 4.27993 20.8536 4.71125C23.1373 4.96625 24.9811 6.765 25.2486 9.06125C25.7111 13.0075 25.7111 16.9937 25.2486 20.94C24.9798 23.2362 23.1361 25.0337 20.8536 25.29C16.963 25.7213 13.0367 25.7213 9.14608 25.29C6.86233 25.0337 5.01858 23.2362 4.75108 20.94C4.29065 16.9938 4.29065 13.0074 4.75108 9.06125C5.01858 6.765 6.86358 4.96625 9.14608 4.71125ZM20.6461 6.57375C16.8934 6.15778 13.1063 6.15778 9.35358 6.57375C8.65889 6.65082 8.01046 6.95984 7.51306 7.45089C7.01565 7.94195 6.69832 8.58635 6.61233 9.28C6.16775 13.0812 6.16775 16.9213 6.61233 20.7225C6.69858 21.4159 7.01603 22.06 7.51341 22.5508C8.01079 23.0416 8.65907 23.3505 9.35358 23.4275C13.0748 23.8425 16.9248 23.8425 20.6461 23.4275C21.3404 23.3502 21.9884 23.0413 22.4855 22.5505C22.9826 22.0597 23.2999 21.4157 23.3861 20.7225C23.8307 16.9213 23.8307 13.0812 23.3861 9.28C23.2996 8.58699 22.9822 7.94331 22.4851 7.45278C21.988 6.96225 21.3402 6.65347 20.6461 6.57625" fill="white"/>
</svg>
