<svg width="68" height="68" viewBox="0 0 68 68" fill="none" xmlns="http://www.w3.org/2000/svg">
<path d="M33.9999 7.08331C37.3322 7.08229 40.577 8.14947 43.2582 10.1282C45.9394 12.107 47.9156 14.893 48.8969 18.0776C49.8783 21.2621 49.8129 24.6773 48.7105 27.8219C47.6082 30.9666 45.5268 33.6751 42.7719 35.5498C47.5536 37.3036 51.7009 40.4484 54.6801 44.5794C57.6593 48.7104 59.334 53.6385 59.4885 58.7293C59.503 59.0119 59.4609 59.2945 59.3646 59.5606C59.2684 59.8267 59.12 60.0708 58.9281 60.2788C58.7362 60.4867 58.5048 60.6543 58.2473 60.7716C57.9898 60.8889 57.7115 60.9536 57.4287 60.9619C57.1458 60.9702 56.8642 60.9219 56.6003 60.8199C56.3364 60.7179 56.0955 60.5643 55.8917 60.3679C55.688 60.1716 55.5255 59.9365 55.4138 59.6765C55.3022 59.4166 55.2435 59.1369 55.2414 58.854C55.0727 53.3331 52.7609 48.0949 48.796 44.2493C44.8312 40.4038 39.5247 38.2531 34.0013 38.2531C28.4778 38.2531 23.1714 40.4038 19.2066 44.2493C15.2417 48.0949 12.9299 53.3331 12.7612 58.854C12.7443 59.4176 12.5042 59.9513 12.0937 60.3379C11.6833 60.7245 11.136 60.9321 10.5725 60.9152C10.0089 60.8983 9.47509 60.6582 9.08853 60.2477C8.70197 59.8373 8.4943 59.2901 8.51121 58.7265C8.66633 53.6361 10.3412 48.7087 13.3204 44.5782C16.2996 40.4478 20.4466 37.3035 25.2279 35.5498C22.473 33.6751 20.3916 30.9666 19.2892 27.8219C18.1868 24.6773 18.1215 21.2621 19.1028 18.0776C20.0841 14.893 22.0604 12.107 24.7416 10.1282C27.4227 8.14947 30.6676 7.08229 33.9999 7.08331ZM22.6665 22.6666C22.6665 25.6724 23.8606 28.5551 25.986 30.6805C28.1114 32.8059 30.9941 34 33.9999 34C37.0057 34 39.8883 32.8059 42.0138 30.6805C44.1392 28.5551 45.3332 25.6724 45.3332 22.6666C45.3332 19.6609 44.1392 16.7782 42.0138 14.6528C39.8883 12.5274 37.0057 11.3333 33.9999 11.3333C30.9941 11.3333 28.1114 12.5274 25.986 14.6528C23.8606 16.7782 22.6665 19.6609 22.6665 22.6666Z" fill="#D9D9D9"/>
</svg>
