<svg width="23" height="23" viewBox="0 0 23 23" fill="none" xmlns="http://www.w3.org/2000/svg">
<path fill-rule="evenodd" clip-rule="evenodd" d="M22.6292 3.79055C22.7429 3.96324 22.7936 4.1699 22.7727 4.37564C22.7518 4.58138 22.6604 4.77359 22.5142 4.91981L11.5054 15.9274C11.3928 16.0399 11.2523 16.1205 11.0983 16.1609L6.51298 17.3584C6.36141 17.3979 6.20214 17.3972 6.05097 17.3561C5.89981 17.3151 5.762 17.2352 5.65124 17.1244C5.54048 17.0137 5.46061 16.8759 5.41957 16.7247C5.37852 16.5735 5.37772 16.4143 5.41726 16.2627L6.61477 11.6786C6.64973 11.541 6.71568 11.4132 6.80757 11.305L17.8571 0.262663C18.0255 0.0944717 18.2537 0 18.4917 0C18.7298 0 18.958 0.0944717 19.1264 0.262663L22.5142 3.64924C22.5572 3.69236 22.5957 3.7397 22.6292 3.79055ZM20.609 4.28393L18.4917 2.16791L8.2913 12.3684L7.54285 15.234L10.4085 14.4856L20.609 4.28393Z" fill="white"/>
<path d="M20.4571 17.8539C20.7844 15.0565 20.889 12.2374 20.7697 9.42341C20.7671 9.35712 20.7782 9.291 20.8023 9.22918C20.8264 9.16737 20.863 9.11119 20.9098 9.06416L22.0881 7.8858C22.1203 7.85342 22.1612 7.83102 22.2058 7.82131C22.2504 7.81159 22.2969 7.81497 22.3397 7.83103C22.3824 7.84709 22.4196 7.87516 22.4468 7.91185C22.474 7.94855 22.49 7.99231 22.4929 8.03789C22.7147 11.3804 22.6305 14.7363 22.2414 18.0635C21.9588 20.4849 20.014 22.3829 17.6034 22.6524C13.4185 23.1158 9.19526 23.1158 5.01035 22.6524C2.60095 22.3829 0.654982 20.4849 0.372368 18.0635C-0.124123 13.8188 -0.124123 9.53069 0.372368 5.28599C0.654982 2.86461 2.59975 0.966547 5.01035 0.697106C8.18661 0.344895 11.3868 0.259572 14.5773 0.442035C14.623 0.445313 14.6667 0.461609 14.7034 0.488991C14.7401 0.516374 14.7682 0.553697 14.7843 0.596539C14.8004 0.639381 14.8039 0.685949 14.7944 0.730726C14.7849 0.775503 14.7628 0.816614 14.7306 0.84919L13.5415 2.03713C13.4949 2.08353 13.4393 2.1199 13.3781 2.144C13.317 2.16809 13.2515 2.17941 13.1858 2.17724C10.5234 2.08673 7.858 2.18879 5.21034 2.4826C4.43667 2.56824 3.71446 2.91218 3.16037 3.45888C2.60629 4.00558 2.25268 4.72311 2.15667 5.49556C1.67652 9.60102 1.67652 13.7485 2.15667 17.8539C2.25268 18.6264 2.60629 19.3439 3.16037 19.8906C3.71446 20.4373 4.43667 20.7813 5.21034 20.8669C9.22801 21.316 13.3858 21.316 17.4047 20.8669C18.1783 20.7813 18.9005 20.4373 19.4546 19.8906C20.0087 19.3439 20.3611 18.6264 20.4571 17.8539Z" fill="white"/>
</svg>
