<svg width="22" height="22" viewBox="0 0 22 22" fill="none" xmlns="http://www.w3.org/2000/svg">
<path fill-rule="evenodd" clip-rule="evenodd" d="M10.0427 2.058C9.64872 2.572 9.20472 3.366 8.55872 4.524L8.23172 5.111L8.17272 5.217C7.87272 5.757 7.61772 6.215 7.20872 6.525C6.79572 6.839 6.29172 6.952 5.70572 7.084L5.59172 7.11L4.95572 7.254C3.70072 7.538 2.84572 7.733 2.26172 7.964C1.69072 8.188 1.57072 8.373 1.52472 8.52C1.47572 8.676 1.47472 8.915 1.81472 9.457C2.16172 10.007 2.74672 10.693 3.60072 11.693L4.03472 12.2L4.10972 12.287C4.51272 12.757 4.84872 13.149 5.00272 13.645C5.15572 14.138 5.10472 14.655 5.04272 15.283L5.03272 15.4L4.96672 16.077C4.83672 17.409 4.75072 18.327 4.77972 18.987C4.80972 19.647 4.94872 19.829 5.05972 19.913C5.15772 19.988 5.33972 20.07 5.93272 19.9C6.53572 19.728 7.33772 19.361 8.51272 18.82L9.10872 18.546L9.21772 18.496C9.76272 18.243 10.2347 18.025 10.7507 18.025C11.2667 18.025 11.7387 18.243 12.2837 18.495C12.32 18.5125 12.3567 18.5291 12.3937 18.545L12.9887 18.82C14.1637 19.361 14.9657 19.728 15.5687 19.9C16.1617 20.07 16.3437 19.988 16.4417 19.913C16.5527 19.829 16.6917 19.646 16.7217 18.987C16.7517 18.327 16.6637 17.409 16.5347 16.077L16.4687 15.4L16.4587 15.283C16.3967 14.655 16.3457 14.138 16.4987 13.645C16.6527 13.149 16.9887 12.757 17.3917 12.287L17.4667 12.2L17.9007 11.693C18.7547 10.693 19.3397 10.007 19.6857 9.457C20.0267 8.915 20.0257 8.677 19.9767 8.52C19.9307 8.373 19.8107 8.188 19.2397 7.964C18.6547 7.733 17.8007 7.538 16.5457 7.254L15.9097 7.11C15.8707 7.1 15.8327 7.092 15.7957 7.084C15.2097 6.952 14.7057 6.839 14.2927 6.525C13.8827 6.215 13.6297 5.758 13.3287 5.217L13.2707 5.111L12.9427 4.524C12.2967 3.366 11.8527 2.572 11.4587 2.058C11.0657 1.544 10.8647 1.5 10.7507 1.5C10.6367 1.5 10.4357 1.544 10.0427 2.058ZM8.85272 1.146C9.32772 0.524 9.91672 0 10.7507 0C11.5847 0 12.1727 0.524 12.6497 1.146C13.1177 1.758 13.6147 2.649 14.2217 3.738L14.5807 4.381C14.9727 5.085 15.0737 5.235 15.1997 5.331C15.3197 5.422 15.4767 5.474 16.2397 5.647L16.9397 5.805C18.1157 6.071 19.0847 6.29 19.7897 6.568C20.5217 6.857 21.1627 7.282 21.4097 8.075C21.6537 8.86 21.3797 9.582 20.9557 10.255C20.5437 10.91 19.8857 11.68 19.0817 12.62L18.6067 13.175C18.0897 13.779 17.9817 13.927 17.9307 14.09C17.8797 14.257 17.8837 14.45 17.9627 15.255L18.0337 15.993C18.1557 17.249 18.2547 18.273 18.2197 19.053C18.1847 19.848 18.0047 20.61 17.3497 21.108C16.6817 21.614 15.9047 21.558 15.1547 21.342C14.4277 21.134 13.5217 20.717 12.4217 20.21L11.7657 19.908C11.0477 19.578 10.8947 19.525 10.7507 19.525C10.6067 19.525 10.4537 19.578 9.73572 19.908L9.08072 20.21C7.97972 20.717 7.07372 21.134 6.34672 21.342C5.59672 21.557 4.81972 21.614 4.15272 21.108C3.49672 20.61 3.31672 19.848 3.28172 19.054C3.24672 18.274 3.34572 17.249 3.46772 15.994L3.53972 15.255C3.61772 14.449 3.62172 14.257 3.56972 14.09C3.51972 13.927 3.41172 13.78 2.89472 13.175L2.41972 12.62C1.61672 11.68 0.958721 10.91 0.546721 10.256C0.121721 9.582 -0.152279 8.86 0.0917205 8.075C0.338721 7.282 0.979721 6.857 1.71172 6.568C2.41672 6.29 3.38572 6.071 4.56172 5.805L4.62472 5.791L5.26072 5.647C6.02472 5.474 6.18072 5.422 6.30172 5.33C6.42772 5.235 6.52872 5.085 6.92172 4.381L7.27972 3.738C7.88672 2.648 8.38372 1.758 8.85172 1.146" fill="white"/>
</svg>
