<svg width="30" height="14" viewBox="0 0 30 14" fill="none" xmlns="http://www.w3.org/2000/svg">
<path d="M0.901016 14C0.403398 14 0 13.5966 0 13.099C0 12.6014 0.403399 12.198 0.901017 12.198H22.0677C22.5654 12.198 22.9688 12.6014 22.9688 13.099C22.9688 13.5966 22.5654 14 22.0677 14H0.901016ZM4.39977 7.90012C3.90215 7.90012 3.49875 7.49672 3.49875 6.9991C3.49875 6.50148 3.90215 6.09808 4.39977 6.09808H25.5665C26.0641 6.09808 26.4675 6.50148 26.4675 6.9991C26.4675 7.49672 26.0641 7.90012 25.5665 7.90012H4.39977ZM7.93227 1.80203C7.43465 1.80203 7.03125 1.39863 7.03125 0.901017C7.03125 0.403399 7.43465 0 7.93227 0H29.099C29.5966 0 30 0.403399 30 0.901017C30 1.39863 29.5966 1.80203 29.099 1.80203H7.93227Z" fill="#ffffff"/>
</svg>
