<svg width="30" height="30" viewBox="0 0 30 30" fill="none" xmlns="http://www.w3.org/2000/svg">
<g clip-path="url(#clip0_182_4)">
<path d="M29.8017 10.208C29.6398 9.98709 29.4016 9.84237 29.1309 9.80059L20.4157 8.4547V1.02621C20.4157 0.460842 19.9557 0.000823975 19.3904 0.000823975H1.02539C0.460018 0.000823975 0 0.460842 0 1.02621V19.4028C0 19.9681 0.460018 20.4282 1.02539 20.4282H7.86946L7.00661 26.0158C6.92118 26.5687 7.31054 27.1004 7.86348 27.1858L26.0132 29.9887C26.5537 30.0721 27.099 29.6763 27.1831 29.1318L27.6524 26.0927C27.7391 25.5312 26.8705 25.3969 26.7838 25.9586C26.7247 26.3412 26.4516 29.1658 26.1474 29.1201L7.9976 26.3172C7.91065 26.2952 7.86981 26.2395 7.8752 26.15L8.75879 20.4282H9.74217L9.02739 25.0565C8.99035 25.2964 9.15477 25.5209 9.39465 25.5579L25.0444 27.9748C25.2653 28.0088 25.511 27.8323 25.5458 27.6075L27.9669 11.9299C28.004 11.69 27.8395 11.4655 27.5997 11.4285L20.4157 10.319V9.34403L28.9968 10.6692C29.0837 10.6912 29.1245 10.7469 29.1192 10.8364L27.126 23.7426C27.0417 24.2885 27.9065 24.4475 27.9946 23.8767L29.9878 10.9705C30.0296 10.6998 29.9634 10.4291 29.8017 10.208ZM0.878903 19.4028V1.02621C0.878903 0.94541 0.944645 0.879727 1.02539 0.879727H19.3903C19.471 0.879727 19.5368 0.94541 19.5368 1.02621V19.4028C19.5368 19.4836 19.471 19.5493 19.3903 19.5493H1.02539C0.944645 19.5493 0.878903 19.4836 0.878903 19.4028ZM27.0312 12.23L24.7442 27.039L9.96307 24.7563L10.6315 20.4282H19.3903C19.9557 20.4282 20.4157 19.9681 20.4157 19.4028V11.2083L27.0312 12.23Z" fill="white"/>
<path d="M18.1253 1.84308H2.29004C2.04734 1.84308 1.85059 2.03978 1.85059 2.28253V4.4792C1.85059 5.04738 2.72949 5.04738 2.72949 4.4792V2.72198H17.6858V17.7066H2.72949V6.81638C2.72949 6.2482 1.85059 6.2482 1.85059 6.81638V18.146C1.85059 18.3888 2.04734 18.5855 2.29004 18.5855H18.1253C18.368 18.5855 18.5647 18.3888 18.5647 18.146V2.28253C18.5648 2.03978 18.368 1.84308 18.1253 1.84308Z" fill="white"/>
<path d="M10.2079 14.5859C10.2653 14.5859 10.3227 14.5747 10.3766 14.5522C10.426 14.5317 11.5979 14.0394 12.7896 13.1092C14.4142 11.8411 15.2838 10.3632 15.3044 8.83521C15.326 7.23689 14.1083 5.67999 12.4332 5.67999C11.5567 5.67999 10.7448 6.11634 10.2079 6.8378C9.67103 6.11634 8.8591 5.67999 7.98254 5.67999C6.39934 5.67999 5.11133 7.09269 5.11133 8.82923C5.11133 12.5083 9.84119 14.4718 10.0425 14.5535C10.0956 14.5752 10.1518 14.5859 10.2079 14.5859ZM5.99029 8.82923C5.99029 7.57738 6.88402 6.5589 7.9826 6.5589C8.76389 6.5589 9.47703 7.08425 9.79941 7.8973C9.9432 8.25988 10.4727 8.25988 10.6164 7.8973C10.9388 7.08425 11.6519 6.5589 12.4332 6.5589C13.6222 6.5589 14.4407 7.70611 14.4256 8.82331C14.3889 11.5435 11.0032 13.2914 10.2056 13.6655C9.4025 13.2976 5.99029 11.5728 5.99029 8.82923Z" fill="white"/>
</g>
<defs>
<clipPath id="clip0_182_4">
<rect width="30" height="30" fill="white"/>
</clipPath>
</defs>
</svg>
