<svg width="30" height="30" viewBox="0 0 30 30" fill="none" xmlns="http://www.w3.org/2000/svg">
<g clip-path="url(#clip0_182_789)">
<path d="M10.089 11.9793C10.2418 11.9793 10.3911 11.9591 10.5356 11.9203C10.7756 12.3914 11.091 12.8278 11.4784 13.2133C11.5438 13.2784 11.6111 13.3411 11.6793 13.4022C10.7309 14.1408 10.0545 15.1673 9.75527 16.338C9.65244 16.7405 9.73922 17.159 9.99328 17.4862C10.2459 17.8114 10.6269 17.9979 11.0389 17.9979H18.9997C19.4116 17.9979 19.7927 17.8114 20.0453 17.4862C20.2995 17.159 20.3862 16.7405 20.2833 16.338C19.9843 15.1674 19.3103 14.1433 18.3639 13.4052C18.4427 13.3349 18.5202 13.2627 18.595 13.187C18.9657 12.8117 19.2691 12.3875 19.5019 11.9299C19.635 11.9625 19.7718 11.9792 19.9112 11.9792C20.8597 11.9792 21.6314 11.2076 21.6314 10.259C21.6314 9.89665 21.5185 9.56032 21.3265 9.28276C21.3291 9.26723 21.3312 9.25147 21.3322 9.23536C21.3396 9.11565 21.3433 8.99331 21.3433 8.8719C21.3433 7.26344 20.6961 5.74633 19.5209 4.60006C19.4869 4.5669 19.4682 4.51827 19.4684 4.45944C19.4684 3.132 17.5474 2.13098 15 2.13098C12.4526 2.13098 10.5316 3.132 10.5316 4.46319C10.5318 4.51833 10.5132 4.56696 10.4791 4.60012C9.30393 5.74633 8.65676 7.26344 8.65676 8.8719C8.65676 8.97245 8.65934 9.07381 8.66437 9.17325C8.66613 9.20747 8.67211 9.24045 8.68119 9.27215C8.48455 9.55176 8.36865 9.89202 8.36865 10.259C8.36871 11.2076 9.14045 11.9793 10.089 11.9793ZM10.089 11.1004C9.62508 11.1004 9.24768 10.723 9.24768 10.259C9.24768 9.82522 9.57773 9.46721 9.9999 9.4225C9.99697 9.4859 9.99439 9.54965 9.99381 9.61293C9.98959 10.1212 10.0609 10.6183 10.2025 11.092C10.1651 11.0971 10.1274 11.1004 10.089 11.1004ZM19.4317 16.5558C19.467 16.6933 19.4375 16.836 19.3511 16.9472C19.2663 17.0565 19.1382 17.1191 18.9997 17.1191H11.0389C10.9004 17.1191 10.7723 17.0565 10.6874 16.9472C10.601 16.836 10.5717 16.6933 10.6068 16.5558C10.8776 15.4959 11.5181 14.5771 12.4166 13.9507C13.1952 14.4268 14.0879 14.6812 15.019 14.6812C15.0415 14.6812 15.064 14.6811 15.0865 14.6808C15.9967 14.6689 16.8681 14.4159 17.6272 13.9536C18.5235 14.5796 19.161 15.4963 19.4317 16.5558ZM15.0749 13.8019C13.9583 13.8177 12.8983 13.3864 12.0983 12.5904C11.2986 11.7945 10.8633 10.7398 10.8727 9.62049C10.8732 9.55604 10.8753 9.49071 10.8788 9.42625C10.8854 9.30467 10.9344 9.19417 11.0166 9.11501C11.3643 8.78032 11.6162 8.31579 11.725 7.81176C11.7254 7.81 11.7267 7.80444 11.7271 7.80262C11.7531 7.68081 11.8448 7.58852 11.9607 7.56743C12.0291 7.555 12.0979 7.54885 12.1663 7.54885C12.3891 7.54885 12.6084 7.61395 12.7997 7.73911C13.419 8.14422 14.2072 8.36729 15.0193 8.36729C15.8314 8.36729 16.6198 8.14411 17.239 7.73893C17.4703 7.58758 17.7471 7.52313 18.019 7.55758C18.1421 7.57311 18.2426 7.66856 18.2685 7.79108L18.2719 7.80708C18.3854 8.33254 18.6486 8.8078 19.0132 9.14518C19.1023 9.22768 19.1566 9.34727 19.1621 9.47325C19.1648 9.53383 19.1661 9.59518 19.1661 9.65559C19.1661 11.9123 17.3308 13.7723 15.0749 13.8019ZM19.9111 11.1004C19.8858 11.1004 19.8608 11.0989 19.8358 11.0967C19.9734 10.6348 20.0449 10.1505 20.0449 9.65553C20.0449 9.58235 20.0433 9.50811 20.0401 9.43475C20.04 9.43264 20.0396 9.43059 20.0395 9.42854C20.4425 9.49071 20.7524 9.83887 20.7524 10.259C20.7525 10.723 20.375 11.1004 19.9111 11.1004ZM11.0927 5.22942C11.2985 5.02885 11.4114 4.75586 11.4106 4.45944C11.4106 3.77518 12.9456 3.00989 15.0001 3.00989C17.0545 3.00989 18.5895 3.77518 18.5895 4.46084C18.5887 4.75586 18.7016 5.02879 18.9073 5.22936C19.8517 6.15051 20.3967 7.34969 20.4582 8.6285C20.2862 8.57061 20.1024 8.53879 19.9111 8.53879C19.8288 8.53879 19.7467 8.54536 19.6656 8.55696C19.6473 8.5378 19.6296 8.51811 19.6101 8.50012C19.3768 8.2842 19.2066 7.97219 19.1309 7.62157C19.1308 7.62098 19.1293 7.61395 19.1292 7.61336C19.0252 7.12094 18.6234 6.74805 18.1293 6.68559C17.6508 6.62518 17.1636 6.73797 16.7578 7.00346C16.28 7.31618 15.6625 7.48838 15.0193 7.48838C14.3762 7.48838 13.7588 7.31624 13.281 7.00364C12.8416 6.71624 12.3169 6.6093 11.8035 6.7027C11.336 6.78766 10.9686 7.14713 10.8684 7.61524C10.8681 7.61618 10.8671 7.62069 10.867 7.62163C10.7936 7.96147 10.6303 8.26698 10.407 8.4819C10.3822 8.50581 10.3591 8.53118 10.3363 8.55684C10.2546 8.54506 10.172 8.53885 10.089 8.53885C9.89771 8.53885 9.71385 8.57067 9.54182 8.62856C9.6034 7.34963 10.1484 6.15051 11.0927 5.22942Z" fill="white"/>
<path d="M23.4814 0H6.51855C4.28115 0 2.46094 1.82021 2.46094 4.05762V23.1445C2.46094 23.3872 2.65764 23.584 2.90039 23.584C3.14314 23.584 3.33984 23.3872 3.33984 23.1445V4.05762C3.33984 2.30484 4.76584 0.878906 6.51855 0.878906H20.4062C20.9529 1.31104 21.2758 1.97256 21.2758 2.67416V3.56936C21.2758 5.13557 22.55 6.4098 24.1162 6.4098H26.6602V8.4815C26.6602 8.7242 26.8569 8.92096 27.0996 8.92096C27.3424 8.92096 27.5391 8.7242 27.5391 8.4815V4.05768C27.5391 1.82021 25.7188 0 23.4814 0ZM24.1162 5.53084C23.0346 5.53084 22.1547 4.65088 22.1547 3.5693V2.67416C22.1547 2.02477 21.9547 1.40039 21.5961 0.878906H23.4814C25.2342 0.878906 26.6602 2.30484 26.6602 4.05762V5.53084H24.1162Z" fill="white"/>
<path d="M27.0996 9.97559C26.8569 9.97559 26.6602 10.1723 26.6602 10.415V25.9424C26.6602 27.6952 25.2342 29.1211 23.4814 29.1211H6.51855C4.76584 29.1211 3.33984 27.6952 3.33984 25.9424V24.9902C3.33984 24.7475 3.14314 24.5508 2.90039 24.5508C2.65764 24.5508 2.46094 24.7475 2.46094 24.9902V25.9424C2.46094 28.1798 4.28115 30 6.51855 30H23.4814C25.7188 30 27.5391 28.1798 27.5391 25.9424V10.415C27.5391 10.1723 27.3424 9.97559 27.0996 9.97559Z" fill="white"/>
<path d="M12.2642 9.64978C12.0214 9.64978 11.8247 9.84654 11.8247 10.0892V10.6186C11.8247 10.8613 12.0214 11.0581 12.2642 11.0581C12.5069 11.0581 12.7036 10.8613 12.7036 10.6186V10.0892C12.7036 9.84654 12.5069 9.64978 12.2642 9.64978Z" fill="white"/>
<path d="M17.7744 9.64978C17.5317 9.64978 17.335 9.84654 17.335 10.0892V10.6186C17.335 10.8613 17.5317 11.0581 17.7744 11.0581C18.0172 11.0581 18.2139 10.8613 18.2139 10.6186V10.0892C18.2139 9.84654 18.0171 9.64978 17.7744 9.64978Z" fill="white"/>
<path d="M16.0344 10.2716C15.8515 10.1122 15.5739 10.1312 15.4144 10.3142C15.3146 10.4287 15.1705 10.4944 15.0193 10.4944C14.8681 10.4944 14.7241 10.4287 14.6242 10.3142C14.4648 10.1313 14.1872 10.1122 14.0042 10.2716C13.8212 10.4311 13.8023 10.7087 13.9617 10.8917C14.2285 11.1978 14.614 11.3733 15.0193 11.3733C15.4247 11.3733 15.8101 11.1977 16.0769 10.8917C16.2364 10.7087 16.2174 10.4311 16.0344 10.2716Z" fill="white"/>
<path d="M17.0059 25.4763C16.7631 25.4763 16.5664 25.673 16.5664 25.9157C16.5664 26.1584 16.7631 26.3552 17.0059 26.3552H21.7982C22.041 26.3552 22.2377 26.1584 22.2377 25.9157C22.2377 25.673 22.041 25.4763 21.7982 25.4763H17.0059Z" fill="white"/>
<path d="M8.03818 20.9998H7.46162C6.64682 20.9998 5.98389 21.6626 5.98389 22.4775C5.98389 23.2924 6.64676 23.9552 7.46162 23.9552H8.03818V26.2811C8.03818 27.0959 8.70106 27.7588 9.51592 27.7588C10.3308 27.7588 10.9937 27.096 10.9937 26.2811V23.9552H11.5702C12.385 23.9552 13.0479 23.2924 13.0479 22.4775C13.0479 21.6626 12.3851 20.9998 11.5702 20.9998H10.9937V20.6086C10.9937 19.7938 10.3308 19.1309 9.51592 19.1309C8.70106 19.1309 8.03818 19.7937 8.03818 20.6086V20.9998ZM8.47764 21.8787C8.72039 21.8787 8.91709 21.6819 8.91709 21.4392V20.6086C8.91709 20.2784 9.18574 20.0098 9.51592 20.0098C9.84609 20.0098 10.1147 20.2784 10.1147 20.6086V21.4392C10.1147 21.6819 10.3114 21.8787 10.5542 21.8787H11.5702C11.9004 21.8787 12.169 22.1473 12.169 22.4775C12.169 22.8077 11.9004 23.0763 11.5702 23.0763H10.5542C10.3114 23.0763 10.1147 23.2731 10.1147 23.5158V26.2811C10.1147 26.6113 9.84609 26.8799 9.51592 26.8799C9.18574 26.8799 8.91709 26.6113 8.91709 26.2811V23.5158C8.91709 23.2731 8.72039 23.0763 8.47764 23.0763H7.46162C7.13145 23.0763 6.86279 22.8077 6.86279 22.4775C6.86279 22.1473 7.13145 21.8787 7.46162 21.8787H8.47764Z" fill="white"/>
<path d="M24.016 23.3571C24.016 23.1144 23.8193 22.9176 23.5765 22.9176H15.2275C14.9848 22.9176 14.7881 23.1144 14.7881 23.3571C14.7881 23.5998 14.9848 23.7965 15.2275 23.7965H23.5765C23.8193 23.7965 24.016 23.5998 24.016 23.3571Z" fill="white"/>
<path d="M23.5765 20.3298H15.2275C14.9848 20.3298 14.7881 20.5265 14.7881 20.7692C14.7881 21.0119 14.9848 21.2087 15.2275 21.2087H23.5765C23.8193 21.2087 24.016 21.0119 24.016 20.7692C24.016 20.5265 23.8193 20.3298 23.5765 20.3298Z" fill="white"/>
</g>
<defs>
<clipPath id="clip0_182_789">
<rect width="30" height="30" fill="white"/>
</clipPath>
</defs>
</svg>
