<svg width="30" height="30" viewBox="0 0 30 30" fill="none" xmlns="http://www.w3.org/2000/svg">
<g clip-path="url(#clip0_182_136)">
<path d="M21.5625 18.7289V14.8594C21.5631 14.3531 21.3686 13.866 21.0194 13.4994C20.6702 13.1328 20.1932 12.9147 19.6875 12.8906V10.7812C19.6875 9.53805 19.1936 8.34576 18.3146 7.46669C17.4355 6.58761 16.2432 6.09375 15 6.09375C13.7568 6.09375 12.5645 6.58761 11.6854 7.46669C10.8064 8.34576 10.3125 9.53805 10.3125 10.7812V12.8906C9.80758 12.9147 9.33127 13.1321 8.98222 13.4977C8.63317 13.8633 8.43813 14.3492 8.4375 14.8547V18.7289C8.4375 19.7283 8.83417 20.6867 9.54037 21.3938C10.2466 22.1009 11.2046 22.4988 12.2039 22.5H17.7961C18.7954 22.4988 19.7534 22.1009 20.4596 21.3938C21.1658 20.6867 21.5625 19.7283 21.5625 18.7289ZM15 7.03125C15.9946 7.03125 16.9484 7.42634 17.6516 8.1296C18.3549 8.83286 18.75 9.78669 18.75 10.7812V12.8906H11.25V10.7812C11.25 9.78669 11.6451 8.83286 12.3483 8.1296C13.0516 7.42634 14.0054 7.03125 15 7.03125ZM9.375 18.7289V14.8594C9.375 14.5859 9.48365 14.3236 9.67705 14.1302C9.87044 13.9368 10.1327 13.8281 10.4063 13.8281H19.5938C19.7292 13.8281 19.8633 13.8548 19.9884 13.9066C20.1135 13.9584 20.2272 14.0344 20.323 14.1302C20.4187 14.2259 20.4947 14.3396 20.5465 14.4647C20.5983 14.5899 20.625 14.7239 20.625 14.8594V18.7289C20.625 19.4796 20.3271 20.1996 19.7967 20.7309C19.2663 21.2622 18.5468 21.5613 17.7961 21.5625H12.2039C11.4532 21.5613 10.7337 21.2622 10.2033 20.7309C9.67289 20.1996 9.375 19.4796 9.375 18.7289Z" fill="white"/>
<path d="M14.9999 14.8781C14.6195 14.8798 14.2523 15.0174 13.9645 15.2662C13.6767 15.515 13.4874 15.8585 13.4308 16.2347C13.3742 16.6108 13.454 16.9948 13.6558 17.3173C13.8576 17.6398 14.1681 17.8794 14.5312 17.993V19.3992C14.5312 19.5235 14.5806 19.6428 14.6685 19.7307C14.7564 19.8186 14.8756 19.868 14.9999 19.868C15.1242 19.868 15.2435 19.8186 15.3314 19.7307C15.4193 19.6428 15.4687 19.5235 15.4687 19.3992V17.993C15.8317 17.8794 16.1422 17.6398 16.344 17.3173C16.5458 16.9948 16.6256 16.6108 16.569 16.2347C16.5124 15.8585 16.3231 15.515 16.0353 15.2662C15.7476 15.0174 15.3803 14.8798 14.9999 14.8781ZM14.9999 17.1258C14.8699 17.1262 14.7427 17.0881 14.6344 17.0161C14.5262 16.9442 14.4417 16.8417 14.3917 16.7217C14.3418 16.6017 14.3286 16.4696 14.3538 16.3421C14.3791 16.2146 14.4416 16.0974 14.5335 16.0055C14.6255 15.9136 14.7426 15.851 14.8701 15.8258C14.9976 15.8005 15.1298 15.8137 15.2498 15.8637C15.3698 15.9136 15.4723 15.9981 15.5442 16.1064C15.6161 16.2147 15.6543 16.3419 15.6538 16.4719C15.6538 16.5577 15.6369 16.6428 15.604 16.7221C15.5712 16.8014 15.523 16.8735 15.4623 16.9342C15.4016 16.995 15.3295 17.0431 15.2502 17.076C15.1708 17.1089 15.0858 17.1258 14.9999 17.1258Z" fill="white"/>
<path d="M27.9822 15C27.986 12.2688 27.1268 9.60618 25.5274 7.39227C23.928 5.17836 21.6701 3.52628 19.076 2.67185C18.9579 2.633 18.8292 2.64266 18.7182 2.6987C18.6072 2.75474 18.523 2.85258 18.4842 2.97068C18.4453 3.08878 18.455 3.21748 18.511 3.32847C18.5671 3.43945 18.6649 3.52363 18.783 3.56248C21.4029 4.43027 23.6453 6.17128 25.1353 8.49431C26.6253 10.8173 27.2725 13.5815 26.9687 16.3246C26.6648 19.0676 25.4284 21.6232 23.4661 23.5638C21.5038 25.5044 18.9347 26.7125 16.1885 26.9859L17.344 25.8281C17.3911 25.7855 17.4291 25.7339 17.4556 25.6762C17.4822 25.6185 17.4967 25.556 17.4984 25.4925C17.5001 25.4291 17.4888 25.3659 17.4654 25.3069C17.4419 25.2479 17.4067 25.1943 17.3619 25.1493C17.317 25.1043 17.2636 25.0689 17.2046 25.0453C17.1457 25.0216 17.0826 25.0101 17.0191 25.0116C16.9556 25.013 16.8931 25.0273 16.8353 25.0537C16.7776 25.08 16.7257 25.1178 16.683 25.1648L14.6697 27.1875C14.6471 27.2081 14.6273 27.2318 14.6111 27.2578C14.6031 27.2685 14.5968 27.2803 14.5924 27.2929C14.5824 27.3078 14.5738 27.3235 14.5666 27.3398L14.5526 27.3867C14.5443 27.3976 14.5372 27.4094 14.5315 27.4219C14.5195 27.4822 14.5195 27.5443 14.5315 27.6047C14.5343 27.619 14.5382 27.6331 14.5432 27.6469L14.5572 27.6937L14.583 27.7383C14.5874 27.7509 14.5937 27.7627 14.6018 27.7734C14.6185 27.7997 14.6382 27.8241 14.6604 27.8461L16.6783 29.8617C16.766 29.95 16.8851 29.9998 17.0095 30.0002C17.1339 30.0007 17.2533 29.9517 17.3416 29.864C17.4299 29.7764 17.4797 29.6573 17.4802 29.5329C17.4806 29.4085 17.4316 29.289 17.344 29.2008L16.0783 27.9328C19.3217 27.6598 22.3446 26.1795 24.5489 23.7846C26.7532 21.3898 27.9784 18.2549 27.9822 15Z" fill="white"/>
<path d="M11.1986 26.4328C8.58101 25.562 6.34156 23.8192 4.85451 21.4957C3.36747 19.1722 2.72292 16.4087 3.02858 13.667C3.33425 10.9254 4.57161 8.37166 6.53388 6.43269C8.49615 4.49371 11.0644 3.28695 13.8096 3.01405L12.6564 4.17186C12.6093 4.21442 12.5713 4.2661 12.5448 4.32378C12.5182 4.38146 12.5037 4.44394 12.502 4.50742C12.5003 4.57089 12.5115 4.63405 12.535 4.69305C12.5585 4.75205 12.5937 4.80566 12.6385 4.85064C12.6833 4.89562 12.7368 4.93103 12.7958 4.95471C12.8547 4.97839 12.9178 4.98985 12.9813 4.9884C13.0447 4.98695 13.1073 4.97262 13.165 4.94628C13.2228 4.91993 13.2746 4.88212 13.3174 4.83514L15.3306 2.81249C15.3533 2.79186 15.373 2.7682 15.3892 2.74217C15.3973 2.7315 15.4036 2.71964 15.408 2.70702C15.418 2.69219 15.4266 2.6765 15.4338 2.66014L15.4478 2.61327C15.4561 2.60232 15.4631 2.59053 15.4689 2.57811C15.4809 2.51777 15.4809 2.45565 15.4689 2.3953C15.47 2.38126 15.47 2.36715 15.4689 2.35311L15.4549 2.30624L15.4291 2.26171C15.4247 2.24909 15.4184 2.23723 15.4103 2.22655C15.3936 2.20023 15.3739 2.17586 15.3517 2.15389L13.3127 0.138268C13.2251 0.0523804 13.1072 0.00427246 12.9846 0.00427246C12.8619 0.00427246 12.7441 0.0523804 12.6564 0.138268C12.5691 0.226094 12.5201 0.3449 12.5201 0.468737C12.5201 0.592574 12.5691 0.711379 12.6564 0.799206L13.9221 2.06717C10.9415 2.31532 8.13814 3.58496 5.98569 5.66149C3.83325 7.73802 2.46381 10.4941 2.10886 13.4637C1.75391 16.4334 2.43522 19.4346 4.03763 21.9599C5.64003 24.4852 8.06524 26.3798 10.9033 27.3234C10.951 27.3391 11.0008 27.347 11.051 27.3469C11.1625 27.3472 11.2706 27.3077 11.3556 27.2354C11.4407 27.1632 11.4972 27.063 11.515 26.9529C11.5328 26.8427 11.5107 26.7298 11.4527 26.6345C11.3947 26.5392 11.3046 26.4676 11.1986 26.4328Z" fill="white"/>
</g>
<defs>
<clipPath id="clip0_182_136">
<rect width="30" height="30" fill="white"/>
</clipPath>
</defs>
</svg>
